<svg width="66" height="66" viewBox="0 0 66 66" fill="none" xmlns="http://www.w3.org/2000/svg">
<path d="M66 33C66 51.2179 51.2 66 32.96 66C14.8 65.9201 0 51.2179 0 33C0 14.7821 14.8 0 33.04 0C51.28 0 66 14.7821 66 33Z" fill="#F20000"/>
<path d="M23.7598 26.3678C24.4798 26.208 25.0398 26.6874 25.0398 27.4065C24.9598 28.1257 24.3198 28.7649 23.5998 28.9247C22.8798 29.0845 22.3198 28.6051 22.3198 27.886C22.3198 27.1668 22.9598 26.5276 23.7598 26.3678ZM15.6798 31.3218C16.3198 28.9247 17.1198 26.4477 17.9198 24.6099C16.3998 26.6874 14.7198 29.2443 13.1998 31.8811C13.9998 31.6414 14.8798 31.4816 15.6798 31.3218ZM28.9598 29.484C29.5198 29.4041 30.8798 30.2031 30.2398 30.9223C29.5998 31.6414 28.8798 31.5615 27.6798 32.0409C27.0398 32.2806 26.5598 32.9199 25.8398 33.9586C24.9598 35.317 24.4798 36.5954 24.3998 37.5542C24.3998 37.8739 24.3998 37.9538 24.2398 38.1136C22.7198 39.0724 22.2398 38.3533 22.3198 37.4743C22.3198 37.2346 22.3998 36.915 22.5598 36.5155C21.3598 38.2734 20.3198 39.1523 19.6798 39.3121C18.7998 39.4719 18.2398 38.8327 18.3198 37.714C18.3998 37.1547 18.5598 36.5954 18.7998 35.7964C19.1198 34.9973 19.5998 33.8787 20.0798 32.9998C20.1598 32.76 20.3198 32.5203 20.3998 32.3605C19.6798 32.5203 18.7198 32.6801 17.5998 32.9199V32.9998C17.1198 35.3169 17.0398 36.116 16.7998 38.1136C16.7198 38.9925 16.8798 39.9513 15.8398 40.0312C14.7198 39.9513 14.3998 38.9126 14.3998 38.0337C14.3998 37.0748 14.5598 35.9562 15.1998 33.3194C14.0798 33.5591 12.9598 33.8787 11.8398 34.2782C9.99984 37.714 8.07984 41.9489 7.83984 43.3073C7.59984 44.4259 7.11984 44.7455 6.39984 44.4259C5.67984 44.1063 5.27984 43.3872 5.51984 42.5881C5.99984 41.1499 7.43984 37.7939 8.79984 35.4768C8.79984 35.4768 8.79984 35.4768 8.79984 35.3969C7.83984 35.7964 6.95984 36.1959 6.15984 36.5954C5.59984 36.7552 4.95984 36.5155 4.79984 35.9562C4.71984 35.5567 4.47984 34.7576 5.51984 34.2782C7.03984 33.639 8.63984 33.0797 10.2398 32.6002C13.6798 26.8472 17.9198 20.8545 19.1998 20.9344C19.7598 21.0143 19.6798 21.5736 20.0798 22.053C20.5598 22.5324 20.6398 22.8521 20.0798 24.2903C18.9598 27.0869 19.0398 26.4477 17.9198 30.8424C19.9198 30.5228 21.6798 30.2831 21.8398 30.2831C22.3998 30.2031 23.3598 30.6027 22.8798 31.6414C22.8798 31.6414 22.3198 32.6002 22.1598 32.9998C21.7598 33.639 21.2798 34.6777 21.0398 35.317C20.8798 35.7165 20.7998 36.0361 20.7198 36.1959C20.7198 36.3557 20.7198 36.4356 20.8798 36.4356C21.0398 36.4356 21.2798 36.2758 21.5198 35.9562C21.7598 35.6366 22.6398 34.9174 24.2398 32.2806L24.6398 31.4017C24.7998 31.162 24.9598 30.6826 25.0398 30.4429C25.1198 30.1232 25.1198 30.0433 25.3598 29.8835C25.7598 29.6438 26.5598 29.4041 26.9598 29.6438C27.3598 29.8835 27.2798 30.4429 26.9598 31.0022C28.3198 29.5639 28.6398 29.484 28.9598 29.484ZM56.0798 33.9586C56.8798 32.9998 58.0798 30.8424 58.1598 30.2031C58.1598 29.9634 58.0798 29.8036 57.9198 29.8835C57.6798 29.8835 57.0398 30.4429 56.4798 31.0821C55.6798 32.1208 54.4798 34.1184 54.3998 34.7576C54.3998 34.9973 54.4798 35.237 54.6398 35.1571C54.9598 35.1571 55.5198 34.6777 56.0798 33.9586ZM60.7198 32.3605C61.0398 31.8012 61.7598 32.0409 61.5998 32.5203C61.4398 32.9199 61.1198 33.639 60.3198 34.5978C59.3598 35.7964 58.3998 36.3557 57.5998 36.5155C56.9598 36.5954 56.4798 36.3557 56.3998 35.7165L56.3198 35.6366C56.3198 35.5567 56.2398 35.4768 56.2398 35.4768C56.1598 35.4768 56.1598 35.5567 55.9998 35.6366C55.1998 36.5155 54.5598 37.0748 53.7598 37.1547C52.6398 37.3145 51.9198 36.4356 52.0798 35.1571C51.7598 35.6366 51.4398 36.0361 51.1998 36.3557C50.3198 37.3145 49.5998 37.9538 48.8798 38.0337C47.9998 38.1935 47.5198 37.4743 47.5998 36.3557C47.6798 35.7964 47.8398 35.237 48.2398 34.438C48.5598 33.639 49.1198 32.6002 49.5998 31.7213C49.9998 31.0022 50.3998 30.2031 50.4798 29.9634C50.5598 29.7237 50.5598 29.7237 50.7198 29.5639C50.9598 29.4041 51.3598 29.2443 51.5998 29.2443C52.2398 29.1644 53.1198 29.6438 52.5598 30.6027L52.3198 31.0022C52.3198 31.0821 51.9198 31.8012 51.6798 32.2007C51.2798 32.84 50.7198 33.7988 50.3998 34.438C50.1598 34.8375 50.0798 35.1571 50.0798 35.317C50.0798 35.4768 50.0798 35.5567 50.2398 35.5567C50.3998 35.5567 50.6398 35.3969 50.8798 35.0772C51.1998 34.7576 51.3598 34.5978 51.9998 33.7189L52.2398 33.3993C52.3998 33.1596 53.9198 31.2419 54.3198 30.7625C55.5198 29.3242 56.8798 28.3654 57.6798 28.2056C58.2398 28.1257 58.7198 28.3654 58.9598 28.9247C59.1198 29.3242 59.1198 29.4041 59.5198 29.5639C60.1598 29.8036 60.3198 30.0433 60.2398 30.2831C60.2398 30.5228 60.1598 30.6826 59.7598 31.2419C59.5198 31.7213 59.1998 32.2806 58.9598 32.6801C58.4798 33.5591 58.2398 34.1983 58.7198 34.3581C58.8798 34.438 59.1998 34.2782 59.5998 33.8787C60.1598 33.3194 60.3998 32.9199 60.7198 32.3605ZM52.9598 27.886C53.6798 27.7262 54.3198 27.0869 54.3998 26.3678C54.4798 25.6487 53.9198 25.2492 53.1198 25.3291C52.3998 25.4889 51.7598 26.1281 51.6798 26.8472C51.5998 27.5663 52.1598 28.0458 52.9598 27.886ZM41.5998 24.6099C40.0798 26.6075 38.3998 29.2443 36.8798 31.8012C37.7598 31.5615 38.6398 31.4017 39.3598 31.2419C40.0798 28.9247 40.8798 26.4477 41.5998 24.6099ZM41.9998 30.8424C42.4798 30.7625 43.9198 30.6027 43.8398 31.2419C43.7598 32.2007 43.3598 32.2007 42.0798 32.5203C41.8398 32.6002 41.5998 32.6002 41.2798 32.6801C41.2798 32.7601 41.1998 32.76 41.1998 32.76C40.7198 35.0772 40.6398 35.8763 40.3998 37.8739C40.3198 38.7528 40.4798 39.7116 39.4398 39.7915C38.3998 39.9513 38.0798 38.8327 38.0798 37.9538C38.0798 36.3557 38.8798 33.1596 38.8798 33.1596C37.8398 33.3993 36.7198 33.7189 35.5998 34.1184C34.2398 36.3557 31.8398 41.869 31.5198 43.2274C31.2798 44.346 30.7998 44.6656 30.0798 44.346C29.3598 44.0264 28.9598 43.3073 29.1998 42.5082C29.9198 40.2709 32.4798 35.3169 32.4798 35.237C31.5198 35.6366 30.6398 36.0361 29.8398 36.4356C29.3598 36.6753 28.7198 36.4356 28.6398 35.8763C28.5598 35.4768 28.3998 34.6777 29.2798 34.2782C30.7998 33.5591 32.3998 32.9998 33.9998 32.6002C37.4398 26.8472 41.6798 20.9344 42.9598 21.0143C43.5198 21.0942 43.4398 21.6535 43.8398 22.1329C44.3198 22.6124 44.3998 22.932 43.8398 24.3702C42.7198 27.1668 42.7998 26.5276 41.6798 30.9223C41.8398 30.9223 41.9198 30.9223 41.9998 30.8424ZM43.6798 38.9126C44.5598 38.8327 47.0398 38.2734 47.0398 35.5567C47.0398 34.5179 45.9998 33.9586 45.7598 33.2395C45.5998 32.76 45.6798 31.8012 46.3998 31.4816C47.2798 31.162 47.4398 31.7213 47.7598 32.1208C47.9198 32.2806 48.3198 32.2806 48.3998 32.1208C48.5598 31.8811 48.8798 31.6414 48.9598 31.0821C49.0398 30.6027 48.5598 29.8036 47.1198 29.8835C46.6398 29.8835 45.9198 29.9634 44.8798 30.9223C44.3998 31.4017 42.9598 33.3993 43.9998 35.1571C44.3198 35.6366 45.0398 36.1959 44.5598 36.6753C43.8398 37.3944 42.6398 36.2758 42.3998 35.9562C42.3198 35.7964 41.9998 35.6366 41.7598 35.9562C41.6798 36.116 41.1198 37.0748 41.1998 37.4743C41.5198 38.593 42.9598 38.9126 43.6798 38.9126Z" fill="white"/>
</svg>
