<svg width="16" height="16" viewBox="0 0 16 16" fill="none" xmlns="http://www.w3.org/2000/svg">
<path fill-rule="evenodd" clip-rule="evenodd" d="M8.00004 1.33301C4.32004 1.33301 1.33337 4.31967 1.33337 7.99967C1.33337 11.6797 4.32004 14.6663 8.00004 14.6663C11.68 14.6663 14.6667 11.6797 14.6667 7.99967C14.6667 4.31967 11.68 1.33301 8.00004 1.33301ZM7.33337 13.2863C4.70004 12.9597 2.66671 10.7197 2.66671 7.99967C2.66671 7.58634 2.72004 7.19301 2.80671 6.80634L6.00004 9.99967V10.6663C6.00004 11.3997 6.60004 11.9997 7.33337 11.9997V13.2863ZM10.6667 10.6663C11.2667 10.6663 11.76 11.053 11.9334 11.593C12.8 10.6463 13.3334 9.38634 13.3334 7.99967C13.3334 5.76634 11.9534 3.85301 10 3.05967V3.33301C10 4.06634 9.40004 4.66634 8.66671 4.66634H7.33337V5.99967C7.33337 6.36634 7.03337 6.66634 6.66671 6.66634H5.33337V7.99967H9.33337C9.70004 7.99967 10 8.29967 10 8.66634V10.6663H10.6667Z" fill="#75767A"/>
</svg>
